<?xml version="1.0" encoding="UTF-8"?>
<svg width="36px" height="36px" viewBox="0 0 36 36" version="1.1" xmlns="http://www.w3.org/2000/svg" xmlns:xlink="http://www.w3.org/1999/xlink">
    <!-- Generator: Sketch 54.1 (76490) - https://sketchapp.com -->
    <title>域名</title>
    <desc>Created with Sketch.</desc>
    <g id="ICON" stroke="none" stroke-width="1" fill="none" fill-rule="evenodd">
        <g id="画板-copy复制-35">
            <g id="域名">
                <rect id="矩形" fill="#00C878" opacity="0" x="0" y="0" width="36" height="36"></rect>
                <path d="M31,12 L5,12 L5,28 L31,28 L31,12 Z M3,6 L33,6 L33,30 L3,30 L3,6 Z M5,8 L5,10 L7,10 L7,8 L5,8 Z M9,8 L9,10 L11,10 L11,8 L9,8 Z M6.96,22.208 C6.78,21.656 6.72,21.212 6.72,20 C6.72,18.788 6.78,18.344 6.96,17.792 C7.392,16.46 8.448,15.776 9.924,15.776 C11.364,15.776 12.396,16.46 12.852,17.636 C12.888,17.72 12.876,17.768 12.792,17.804 L11.196,18.5 C11.112,18.536 11.064,18.512 11.028,18.428 C10.8,17.948 10.512,17.66 9.96,17.66 C9.444,17.66 9.12,17.912 8.976,18.368 C8.892,18.62 8.856,18.872 8.856,20 C8.856,21.128 8.892,21.38 8.976,21.632 C9.12,22.088 9.444,22.34 9.96,22.34 C10.512,22.34 10.8,22.052 11.028,21.572 C11.064,21.488 11.112,21.464 11.196,21.5 L12.792,22.196 C12.876,22.232 12.888,22.28 12.852,22.364 C12.396,23.54 11.364,24.224 9.924,24.224 C8.448,24.224 7.392,23.54 6.96,22.208 Z M16.908,24.224 C15.468,24.224 14.28,23.552 13.848,22.22 C13.656,21.596 13.608,21.116 13.608,20 C13.608,18.884 13.656,18.404 13.848,17.78 C14.28,16.448 15.468,15.776 16.908,15.776 C18.348,15.776 19.536,16.448 19.968,17.78 C20.172,18.404 20.208,18.884 20.208,20 C20.208,21.116 20.172,21.596 19.968,22.22 C19.536,23.552 18.348,24.224 16.908,24.224 Z M16.908,22.34 C17.436,22.34 17.808,22.076 17.952,21.62 C18.048,21.344 18.072,20.972 18.072,20 C18.072,19.028 18.048,18.656 17.952,18.38 C17.808,17.924 17.436,17.66 16.908,17.66 C16.38,17.66 16.008,17.924 15.864,18.38 C15.768,18.656 15.744,19.028 15.744,20 C15.744,20.972 15.768,21.344 15.864,21.62 C16.008,22.076 16.38,22.34 16.908,22.34 Z M21.336,23.96 L21.336,16.04 C21.336,15.968 21.384,15.92 21.456,15.92 L23.232,15.92 C23.316,15.92 23.4,15.944 23.436,16.04 L25.32,20.3 L25.368,20.3 L27.204,16.04 C27.24,15.944 27.324,15.92 27.408,15.92 L29.16,15.92 C29.232,15.92 29.28,15.968 29.28,16.04 L29.28,23.96 C29.28,24.032 29.232,24.08 29.16,24.08 L27.492,24.08 C27.42,24.08 27.372,24.032 27.372,23.96 L27.372,19.76 L27.312,19.76 L26.004,22.808 C25.944,22.928 25.848,22.964 25.776,22.964 L24.84,22.964 C24.768,22.964 24.684,22.928 24.612,22.808 L23.304,19.76 L23.244,19.76 L23.244,23.96 C23.244,24.032 23.196,24.08 23.124,24.08 L21.456,24.08 C21.384,24.08 21.336,24.032 21.336,23.96 Z" id="形状结合" fill="#8B9DB6"></path>
            </g>
        </g>
    </g>
</svg>