<?xml version="1.0" encoding="UTF-8"?>
<svg width="36px" height="36px" viewBox="0 0 36 36" version="1.1" xmlns="http://www.w3.org/2000/svg" xmlns:xlink="http://www.w3.org/1999/xlink">
    <!-- Generator: Sketch 54.1 (76490) - https://sketchapp.com -->
    <title>HTTPDNS</title>
    <desc>Created with Sketch.</desc>
    <g id="ICON" stroke="none" stroke-width="1" fill="none" fill-rule="evenodd">
        <g id="画板-copy复制-40">
            <g id="HTTPDNS">
                <rect id="矩形" fill="#00C878" opacity="0" x="0" y="0" width="36" height="36"></rect>
                <path d="M21.4461809,9.03196735 L26.9680327,14.5538191 C27.5635459,14.2019294 28.2581914,14 29,14 C31.209139,14 33,15.790861 33,18 C33,20.209139 31.209139,22 29,22 C26.790861,22 25,20.209139 25,18 C25,17.2581914 25.2019294,16.5635459 25.5538191,15.9680327 L20.0319673,10.4461809 C19.7136556,10.6342718 19.367021,10.7795178 19,10.8739825 L19,14.1260175 C20.7252272,14.5700603 22,16.1361606 22,18 C22,19.8638394 20.7252272,21.4299397 19,21.8739825 L19,25.1260175 C20.7252272,25.5700603 22,27.1361606 22,29 C22,31.209139 20.209139,33 18,33 C15.790861,33 14,31.209139 14,29 C14,27.1361606 15.2747728,25.5700603 17,25.1260175 L17,21.8739825 C15.2747728,21.4299397 14,19.8638394 14,18 C14,16.1361606 15.2747728,14.5700603 17,14.1260175 L17,10.8739825 C16.632979,10.7795178 16.2863444,10.6342718 15.9680327,10.4461809 L10.4461809,15.9680327 C10.7980706,16.5635459 11,17.2581914 11,18 C11,20.209139 9.209139,22 7,22 C4.790861,22 3,20.209139 3,18 C3,15.790861 4.790861,14 7,14 C7.74180862,14 8.43645409,14.2019294 9.03196735,14.5538191 L14.5538191,9.03196735 C14.2019294,8.43645409 14,7.74180862 14,7 C14,4.790861 15.790861,3 18,3 C20.209139,3 22,4.790861 22,7 C22,7.74180862 21.7980706,8.43645409 21.4461809,9.03196735 Z M7,20 C8.1045695,20 9,19.1045695 9,18 C9,16.8954305 8.1045695,16 7,16 C5.8954305,16 5,16.8954305 5,18 C5,19.1045695 5.8954305,20 7,20 Z M18,20 C19.1045695,20 20,19.1045695 20,18 C20,16.8954305 19.1045695,16 18,16 C16.8954305,16 16,16.8954305 16,18 C16,19.1045695 16.8954305,20 18,20 Z M18,31 C19.1045695,31 20,30.1045695 20,29 C20,27.8954305 19.1045695,27 18,27 C16.8954305,27 16,27.8954305 16,29 C16,30.1045695 16.8954305,31 18,31 Z M29,20 C30.1045695,20 31,19.1045695 31,18 C31,16.8954305 30.1045695,16 29,16 C27.8954305,16 27,16.8954305 27,18 C27,19.1045695 27.8954305,20 29,20 Z" id="形状结合" fill="#8B9DB6"></path>
            </g>
        </g>
    </g>
</svg>