<?xml version="1.0" encoding="UTF-8"?>
<svg width="36px" height="36px" viewBox="0 0 36 36" version="1.1" xmlns="http://www.w3.org/2000/svg" xmlns:xlink="http://www.w3.org/1999/xlink">
    <!-- Generator: Sketch 54.1 (76490) - https://sketchapp.com -->
    <title>D监控</title>
    <desc>Created with Sketch.</desc>
    <g id="ICON" stroke="none" stroke-width="1" fill="none" fill-rule="evenodd">
        <g id="画板-copy复制-36">
            <g id="D监控">
                <rect id="矩形" fill="#00C878" opacity="0" x="0" y="0" width="36" height="36"></rect>
                <path d="M31,26 L31,8 L5,8 L5,26 L31,26 Z M33,6 L33,28 L26,28 L26,30 L10,30 L10,28 L3,28 L3,6 L33,6 Z M19,10.8554931 L19,18.8554931 L22.4030441,16 L28,16 L28,18 L23.1309846,18 L17,23.1445069 L17,15.1445069 L13.5969559,18 L8,18 L8,16 L12.8690154,16 L19,10.8554931 Z" id="形状复制-3" fill="#8B9DB6"></path>
            </g>
        </g>
    </g>
</svg>