<?xml version="1.0" encoding="UTF-8"?>
<svg width="36px" height="36px" viewBox="0 0 36 36" version="1.1" xmlns="http://www.w3.org/2000/svg" xmlns:xlink="http://www.w3.org/1999/xlink">
    <!-- Generator: Sketch 54.1 (76490) - https://sketchapp.com -->
    <title>SSL证书</title>
    <desc>Created with Sketch.</desc>
    <g id="ICON" stroke="none" stroke-width="1" fill="none" fill-rule="evenodd">
        <g id="画板-copy复制-38">
            <g id="SSL证书">
                <rect id="矩形" fill="#00C878" opacity="0" x="0" y="0" width="36" height="36"></rect>
                <path d="M31.2,24 L31.2,22.5 C31.2,21.8372583 30.6627417,21.3 30,21.3 C29.3372583,21.3 28.8,21.8372583 28.8,22.5 L28.8,24 L31.2,24 Z M27,24 L27,22.5 C27,20.8431458 28.3431458,19.5 30,19.5 C31.6568542,19.5 33,20.8431458 33,22.5 L33,24 L34,24 L34,30 L26,30 L26,24 L27,24 Z M24.2,28 L24.2,30 L2,30 L2,6 L32,6 L32,18.1352338 C31.3911546,17.8557947 30.7137712,17.7 30,17.7 L30,8 L10,8 L4,14 L4,28 L24.2,28 Z M25.7815285,20.208 C25.4739188,20.7729655 25.2764959,21.4065859 25.2181213,22.08 L21.699447,22.08 C21.627447,22.08 21.579447,22.032 21.579447,21.96 L21.579447,14.04 C21.579447,13.968 21.627447,13.92 21.699447,13.92 L23.571447,13.92 C23.643447,13.92 23.691447,13.968 23.691447,14.04 L23.691447,20.136 C23.691447,20.184 23.715447,20.208 23.763447,20.208 L25.7815285,20.208 Z M9.99944704,22.224 C8.66744704,22.224 7.32344704,21.66 6.71144704,21.06 C6.65144704,21.012 6.63944704,20.928 6.69944704,20.868 L7.77944704,19.596 C7.82744704,19.536 7.89944704,19.536 7.94744704,19.584 C8.43944704,20.016 9.20744704,20.4 10.023447,20.4 C10.779447,20.4 11.175447,20.088 11.175447,19.632 C11.175447,19.284 10.947447,19.056 10.143447,18.948 L9.71144704,18.888 C7.94744704,18.636 6.98744704,17.844 6.98744704,16.32 C6.98744704,14.796 8.17544704,13.776 10.023447,13.776 C11.151447,13.776 12.207447,14.124 12.939447,14.676 C12.999447,14.724 13.011447,14.784 12.963447,14.856 L12.063447,16.164 C12.015447,16.224 11.955447,16.236 11.895447,16.2 C11.319447,15.816 10.707447,15.588 10.059447,15.588 C9.45944704,15.588 9.15944704,15.876 9.15944704,16.272 C9.15944704,16.632 9.42344704,16.86 10.203447,16.956 L10.635447,17.016 C12.423447,17.268 13.335447,18.06 13.335447,19.608 C13.335447,21.12 12.183447,22.224 9.99944704,22.224 Z M17.259447,22.224 C15.927447,22.224 14.583447,21.66 13.971447,21.06 C13.911447,21.012 13.899447,20.928 13.959447,20.868 L15.039447,19.596 C15.087447,19.536 15.159447,19.536 15.207447,19.584 C15.699447,20.016 16.467447,20.4 17.283447,20.4 C18.039447,20.4 18.435447,20.088 18.435447,19.632 C18.435447,19.284 18.207447,19.056 17.403447,18.948 L16.971447,18.888 C15.207447,18.636 14.247447,17.844 14.247447,16.32 C14.247447,14.796 15.435447,13.776 17.283447,13.776 C18.411447,13.776 19.467447,14.124 20.199447,14.676 C20.259447,14.724 20.271447,14.784 20.223447,14.856 L19.323447,16.164 C19.275447,16.224 19.215447,16.236 19.155447,16.2 C18.579447,15.816 17.967447,15.588 17.319447,15.588 C16.719447,15.588 16.419447,15.876 16.419447,16.272 C16.419447,16.632 16.683447,16.86 17.463447,16.956 L17.895447,17.016 C19.683447,17.268 20.595447,18.06 20.595447,19.608 C20.595447,21.12 19.443447,22.224 17.259447,22.224 Z" id="形状结合" fill="#8B9DB6" fill-rule="nonzero"></path>
            </g>
        </g>
    </g>
</svg>